name C:/MyDriveSym/Projects/mobilecap/Data\Session20210813_0002\mocap\ForceDataProcessed\walking3_forces.mot
datacolumns 19
datarows 17
range 0.38200000 0.39000000
endheader 
time	R_ground_force_vx	R_ground_force_vy	R_ground_force_vz	R_ground_force_px	R_ground_force_py	R_ground_force_pz	R_ground_torque_x	R_ground_torque_y	R_ground_torque_z	L_ground_force_vx	L_ground_force_vy	L_ground_force_vz	L_ground_force_px	L_ground_force_py	L_ground_force_pz	L_ground_torque_x	L_ground_torque_y	L_ground_torque_z	
          0.38200000	        -14.34460700	        696.22546300	        -18.41759600	          0.37661300	          0.00600000	         -0.14653000	          0.00000000	         -3.87312000	          0.00000000	          0.00000000	          0.00000000	          0.00000000	          0.79971700	          0.00000000	         -0.21190000	          0.00000000	          0.00000000	          0.00000000	
          0.38250000	        -14.13879400	        696.56430000	        -18.45988700	          0.37666800	          0.00600000	         -0.14652500	          0.00000000	         -3.88233700	          0.00000000	          0.00000000	          0.00000000	          0.00000000	          0.79971700	          0.00000000	         -0.21190000	          0.00000000	          0.00000000	          0.00000000	
          0.38300000	        -13.93263600	        696.90429600	        -18.50254800	          0.37672300	          0.00600000	         -0.14652000	          0.00000000	         -3.89154100	          0.00000000	          0.00000000	          0.00000000	          0.00000000	          0.79971700	          0.00000000	         -0.21190000	          0.00000000	          0.00000000	          0.00000000	
          0.38350000	        -13.72613200	        697.24545300	        -18.54557700	          0.37677800	          0.00600000	         -0.14651500	          0.00000000	         -3.90073000	          0.00000000	          0.00000000	          0.00000000	          0.00000000	          0.79971700	          0.00000000	         -0.21190000	          0.00000000	          0.00000000	          0.00000000	
          0.38400000	        -13.51927900	        697.58777400	        -18.58897000	          0.37683300	          0.00600000	         -0.14651000	          0.00000000	         -3.90990600	          0.00000000	          0.00000000	          0.00000000	          0.00000000	          0.79971700	          0.00000000	         -0.21190000	          0.00000000	          0.00000000	          0.00000000	
          0.38450000	        -13.31207700	        697.93126100	        -18.63272600	          0.37688800	          0.00600000	         -0.14650500	          0.00000000	         -3.91906700	          0.00000000	          0.00000000	          0.00000000	          0.00000000	          0.79971700	          0.00000000	         -0.21190000	          0.00000000	          0.00000000	          0.00000000	
          0.38500000	        -13.10452300	        698.27591500	        -18.67684300	          0.37694400	          0.00600000	         -0.14650100	          0.00000000	         -3.92821300	          0.00000000	          0.00000000	          0.00000000	          0.00000000	          0.79971700	          0.00000000	         -0.21190000	          0.00000000	          0.00000000	          0.00000000	
          0.38550000	        -12.89661500	        698.62173900	        -18.72131700	          0.37699900	          0.00600000	         -0.14649600	          0.00000000	         -3.93734500	          0.00000000	          0.00000000	          0.00000000	          0.00000000	          0.79971700	          0.00000000	         -0.21190000	          0.00000000	          0.00000000	          0.00000000	
          0.38600000	        -12.68835200	        698.96873600	        -18.76614600	          0.37705500	          0.00600000	         -0.14649200	          0.00000000	         -3.94646300	          0.00000000	          0.00000000	          0.00000000	          0.00000000	          0.79971700	          0.00000000	         -0.21190000	          0.00000000	          0.00000000	          0.00000000	
          0.38650000	        -12.47973300	        699.31690800	        -18.81132700	          0.37711100	          0.00600000	         -0.14648700	          0.00000000	         -3.95556500	          0.00000000	          0.00000000	          0.00000000	          0.00000000	          0.79971700	          0.00000000	         -0.21190000	          0.00000000	          0.00000000	          0.00000000	
          0.38700000	        -12.27075400	        699.66625800	        -18.85685700	          0.37716700	          0.00600000	         -0.14648300	          0.00000000	         -3.96465200	          0.00000000	          0.00000000	          0.00000000	          0.00000000	          0.79971700	          0.00000000	         -0.21190000	          0.00000000	          0.00000000	          0.00000000	
          0.38750000	        -12.06141500	        700.01678800	        -18.90273500	          0.37722300	          0.00600000	         -0.14647800	          0.00000000	         -3.97372400	          0.00000000	          0.00000000	          0.00000000	          0.00000000	          0.79971700	          0.00000000	         -0.21190000	          0.00000000	          0.00000000	          0.00000000	
          0.38800000	        -11.85171300	        700.36850100	        -18.94895700	          0.37728000	          0.00600000	         -0.14647400	          0.00000000	         -3.98278100	          0.00000000	          0.00000000	          0.00000000	          0.00000000	          0.79971700	          0.00000000	         -0.21190000	          0.00000000	          0.00000000	          0.00000000	
          0.38850000	        -11.64164700	        700.72140000	        -18.99551900	          0.37733600	          0.00600000	         -0.14647000	          0.00000000	         -3.99182200	          0.00000000	          0.00000000	          0.00000000	          0.00000000	          0.79971700	          0.00000000	         -0.21190000	          0.00000000	          0.00000000	          0.00000000	
          0.38900000	        -11.43121300	        701.07548800	        -19.04242000	          0.37739300	          0.00600000	         -0.14646600	          0.00000000	         -4.00084800	          0.00000000	          0.00000000	          0.00000000	          0.00000000	          0.79971700	          0.00000000	         -0.21190000	          0.00000000	          0.00000000	          0.00000000	
          0.38950000	        -11.22041100	        701.43076700	        -19.08965700	          0.37745000	          0.00600000	         -0.14646200	          0.00000000	         -4.00985700	          0.00000000	          0.00000000	          0.00000000	          0.00000000	          0.79971700	          0.00000000	         -0.21190000	          0.00000000	          0.00000000	          0.00000000	
          0.39000000	        -11.00923900	        701.78724200	        -19.13722500	          0.37750700	          0.00600000	         -0.14645800	          0.00000000	         -4.01885100	          0.00000000	          0.00000000	          0.00000000	          0.00000000	          0.79971700	          0.00000000	         -0.21190000	          0.00000000	          0.00000000	          0.00000000	
